<svg width="31" height="31" viewBox="0 0 31 31" fill="none" xmlns="http://www.w3.org/2000/svg">
<g clip-path="url(#clip0_29_276)">
<path d="M15.625 19.106C17.6961 19.106 19.375 17.427 19.375 15.356C19.375 13.2849 17.6961 11.606 15.625 11.606C13.5539 11.606 11.875 13.2849 11.875 15.356C11.875 17.427 13.5539 19.106 15.625 19.106Z" fill="white"/>
<path d="M20.7812 3.63721H10.4688C8.72887 3.63918 7.06082 4.33121 5.83054 5.5615C4.60026 6.79178 3.90822 8.45983 3.90625 10.1997V20.5122C3.90822 22.2521 4.60026 23.9201 5.83054 25.1504C7.06082 26.3807 8.72887 27.0727 10.4688 27.0747H20.7812C22.5211 27.0727 24.1892 26.3807 25.4195 25.1504C26.6497 23.9201 27.3418 22.2521 27.3438 20.5122V10.1997C27.3418 8.45983 26.6497 6.79178 25.4195 5.5615C24.1892 4.33121 22.5211 3.63918 20.7812 3.63721ZM15.625 20.981C14.5125 20.981 13.4249 20.6511 12.4999 20.033C11.5749 19.4149 10.8539 18.5364 10.4282 17.5086C10.0024 16.4807 9.89104 15.3497 10.1081 14.2586C10.3251 13.1674 10.8609 12.1652 11.6475 11.3785C12.4342 10.5918 13.4365 10.0561 14.5276 9.83904C15.6188 9.622 16.7498 9.73339 17.7776 10.1591C18.8054 10.5849 19.6839 11.3058 20.302 12.2309C20.9201 13.1559 21.25 14.2434 21.25 15.356C21.2483 16.8473 20.6551 18.277 19.6006 19.3316C18.5461 20.3861 17.1163 20.9793 15.625 20.981ZM21.7188 10.6685C21.4406 10.6685 21.1687 10.586 20.9375 10.4315C20.7062 10.2769 20.526 10.0573 20.4195 9.80036C20.3131 9.5434 20.2853 9.26065 20.3395 8.98786C20.3938 8.71508 20.5277 8.46451 20.7244 8.26784C20.921 8.07117 21.1716 7.93724 21.4444 7.88298C21.7172 7.82872 21.9999 7.85657 22.2569 7.963C22.5139 8.06944 22.7335 8.24968 22.888 8.48094C23.0425 8.71219 23.125 8.98408 23.125 9.26221C23.125 9.63517 22.9768 9.99285 22.7131 10.2566C22.4494 10.5203 22.0917 10.6685 21.7188 10.6685Z" fill="white"/>
</g>
<defs>
<clipPath id="clip0_29_276">
<rect width="30" height="30" fill="white" transform="translate(0.625 0.355957)"/>
</clipPath>
</defs>
</svg>
