<svg width="50" height="31" viewBox="0 0 50 31" fill="none" xmlns="http://www.w3.org/2000/svg">
<g clip-path="url(#clip0_29_673)">
<path d="M22.9518 19.9717H0.605469L11.7744 0.508789L22.9518 19.9717ZM5.06466 17.3778C9.35589 17.3778 14.2098 17.3778 18.4926 17.3778C16.3428 13.631 13.9158 9.40953 11.7744 5.67969C9.64141 9.40953 7.21447 13.6395 5.06466 17.3778Z" fill="white"/>
<path d="M22.9509 20.4802H0.604595C0.428243 20.4802 0.260289 20.3869 0.167914 20.2259C0.0755391 20.0648 0.0755391 19.8783 0.167914 19.7173L11.3369 0.254307C11.4292 0.0932458 11.5972 0 11.7736 0C11.9499 0 12.1179 0.0932458 12.2102 0.254307L23.3876 19.7173C23.48 19.8783 23.48 20.0648 23.3876 20.2259C23.2952 20.3869 23.1273 20.4802 22.9509 20.4802ZM1.47796 19.4629H22.0776L11.7736 1.52584L1.47796 19.4629ZM18.4917 17.8862H5.06378C4.88743 17.8862 4.71947 17.793 4.6271 17.6319C4.53473 17.4709 4.53473 17.2759 4.6271 17.1233C6.93647 13.1138 9.31302 8.96008 11.3369 5.42521C11.4292 5.26415 11.5888 5.17091 11.7736 5.17091C11.9499 5.17091 12.1179 5.26415 12.2102 5.42521C13.092 6.95953 14.0157 8.57014 14.9563 10.1977C16.2999 12.5373 17.6687 14.9109 18.9284 17.1233C19.0208 17.2844 19.0208 17.4709 18.9284 17.6319C18.836 17.793 18.6681 17.8862 18.4917 17.8862ZM5.93714 16.869H17.6184C16.4763 14.8854 15.2754 12.7832 14.0829 10.7063C13.3019 9.34154 12.521 7.99371 11.7736 6.68827C9.98484 9.82472 7.9442 13.385 5.93714 16.869Z" fill="white"/>
<path d="M23.0928 16.3694V5.02734H25.209V14.2417H29.4162V16.3694H23.0928Z" fill="white"/>
<path d="M29.4172 16.5386H23.0937L22.9258 16.369V5.02696L23.0937 4.85742H25.21L25.3779 5.02696V14.0718H29.4172L29.5852 14.2413V16.369L29.4172 16.5386ZM23.2617 16.1995H29.2493V14.4109H25.21L25.042 14.2413V5.1965H23.2617V16.1995Z" fill="white"/>
<path d="M31.3389 16.3694V5.02734H38.3846V7.15504H33.4635V9.55401H38.2838V11.6817H33.4635V14.2502H38.3846V16.3779H31.3389V16.3694Z" fill="white"/>
<path d="M38.3865 16.5471H31.3408L31.1729 16.3775V5.02696L31.3408 4.85742H38.3865L38.5544 5.02696V7.15466L38.3865 7.3242H33.6334V9.38408H38.2857L38.4537 9.55362V11.6813L38.2857 11.8509H33.6334V14.0803H38.3865L38.5544 14.2498V16.3775L38.3865 16.5471ZM31.5088 16.208H38.2185V14.4194H33.4654L33.2975 14.2498V11.6813L33.4654 11.5118H38.1178V9.72316H33.4654L33.2975 9.55362V7.15466L33.4654 6.98512H38.2185V5.1965H31.5088V16.208Z" fill="white"/>
<path d="M47.3212 16.3694L44.8271 12.2157L42.3162 16.3694H39.7969L43.4079 10.5543L40.0236 5.02734H42.5429L44.8271 8.90128L47.0777 5.02734H49.6306L46.2463 10.5373L49.8573 16.3694H47.3212Z" fill="white"/>
<path d="M49.8585 16.5386H47.3224L47.1796 16.4538L44.8283 12.5375L42.4601 16.4538L42.3173 16.5386H39.798L39.6553 16.2758L43.2075 10.5539L39.882 5.12021L40.0248 4.85742H42.5441L42.6868 4.94219L44.8283 8.5703L46.9361 4.94219L47.0789 4.85742H49.6318L49.7745 5.12021L46.449 10.5369L50.0013 16.2758L49.8585 16.5386ZM47.4148 16.1995H49.5562L46.1047 10.6302V10.4522L49.3294 5.20497H47.1712L44.971 8.98567H44.6855L42.4517 5.1965H40.3271L43.5518 10.4606V10.6387L40.1004 16.191H42.225L44.6855 12.1221H44.971L47.4148 16.1995Z" fill="white"/>
<path d="M0 30.2529L0.453477 29.6171C0.77259 29.9647 1.27645 30.2698 1.93147 30.2698C2.60329 30.2698 2.87202 29.9392 2.87202 29.6256C2.87202 28.6338 0.151159 29.2526 0.151159 27.5149C0.151159 26.735 0.831374 26.1416 1.8475 26.1416C2.5781 26.1416 3.15754 26.3705 3.59422 26.7943L3.12395 27.4047C2.76285 27.0402 2.26738 26.8706 1.77192 26.8706C1.29325 26.8706 0.982533 27.0995 0.982533 27.4555C0.982533 28.3286 3.69499 27.7861 3.69499 29.5408C3.69499 30.3207 3.14914 30.9904 1.88949 30.9904C1.03292 30.9989 0.411488 30.7022 0 30.2529Z" fill="white"/>
<path d="M6.18945 28.5667C6.18945 27.1595 7.17199 26.1338 8.57441 26.1338C9.96843 26.1338 10.9594 27.168 10.9594 28.5667C10.9594 29.9738 9.97682 30.9995 8.57441 30.9995C7.18038 30.9995 6.18945 29.9738 6.18945 28.5667ZM10.1196 28.5667C10.1196 27.5918 9.51495 26.8628 8.57441 26.8628C7.63386 26.8628 7.02922 27.5918 7.02922 28.5667C7.02922 29.533 7.63386 30.2705 8.57441 30.2705C9.51495 30.2705 10.1196 29.533 10.1196 28.5667Z" fill="white"/>
<path d="M13.6963 30.9146V26.21H16.8874V26.939H14.5109V28.1596H16.837V28.8887H14.5109V30.9231H13.6963V30.9146Z" fill="white"/>
<path d="M20.6833 30.9146V26.939H19.2725V26.21H22.9171V26.939H21.5063V30.9146H20.6833Z" fill="white"/>
<path d="M29.1225 30.9146L28.2156 27.4476L27.317 30.9146H26.4436L25.1084 26.21H26.0237L26.9307 29.8381L27.8964 26.21H28.5431L29.5088 29.8381L30.4074 26.21H31.3227L29.9959 30.9146H29.1225Z" fill="white"/>
<path d="M43.1308 30.9146L42.0979 29.1599H41.2833V30.9146H40.4688V26.21H42.5178C43.4415 26.21 44.0378 26.8203 44.0378 27.6849C44.0378 28.5242 43.4919 28.9734 42.9377 29.0667L44.0798 30.9146H43.1308ZM43.2064 27.6849C43.2064 27.2357 42.8705 26.939 42.4086 26.939H41.2917V28.4309H42.4086C42.8705 28.4309 43.2064 28.1342 43.2064 27.6849Z" fill="white"/>
<path d="M46.8105 30.9146V26.21H50.0017V26.939H47.6251V28.1596H49.9513V28.8887H47.6251V30.1941H50.0017V30.9231H46.8105V30.9146Z" fill="white"/>
<path d="M37.8975 30.9153H33.4803C33.3291 30.9153 33.1948 30.8305 33.1192 30.7034C33.0436 30.5762 33.0436 30.4152 33.1192 30.2795L34.2193 28.3468L35.3278 26.4141C35.4034 26.2869 35.5377 26.2021 35.6889 26.2021C35.84 26.2021 35.9744 26.2869 36.05 26.4141L37.1585 28.3468L38.2586 30.2795C38.3342 30.4067 38.3342 30.5762 38.2586 30.7034C38.183 30.8305 38.0486 30.9153 37.8975 30.9153ZM34.2025 30.0676H37.1669L36.4279 28.7706L35.6805 27.4737L34.9331 28.7706L34.2025 30.0676Z" fill="white"/>
</g>
<defs>
<clipPath id="clip0_29_673">
<rect width="50" height="31" fill="white"/>
</clipPath>
</defs>
</svg>
