<svg width="30" height="30" viewBox="0 0 30 30" fill="none" xmlns="http://www.w3.org/2000/svg">
<path d="M26.3768 19.7534C26.5417 19.7534 26.7003 19.8191 26.817 19.9359C26.9343 20.0532 27 20.2118 27 20.3767C27 20.5422 26.9343 20.7008 26.817 20.8175C26.7003 20.9343 26.5417 21 26.3768 21H3.62317C3.45831 21 3.29969 20.9343 3.18298 20.8175C3.06572 20.7008 3 20.5422 3 20.3767C3 20.2118 3.06572 20.0532 3.18298 19.9359C3.29969 19.8191 3.45831 19.7534 3.62317 19.7534H26.3768ZM26.3768 9C26.5417 9 26.7003 9.06573 26.817 9.18245C26.9343 9.29918 27 9.45784 27 9.62329C27 9.78818 26.9343 9.94684 26.817 10.0641C26.7003 10.1809 26.5417 10.2466 26.3768 10.2466H3.62317C3.45831 10.2466 3.29969 10.1809 3.18298 10.0641C3.06572 9.94684 3 9.78818 3 9.62329C3 9.45784 3.06572 9.29918 3.18298 9.18245C3.29969 9.06573 3.45831 9 3.62317 9H26.3768Z" fill="#2D2D2D"/>
</svg>
