<svg width="31" height="31" viewBox="0 0 31 31" fill="none" xmlns="http://www.w3.org/2000/svg">
<path d="M15.625 3.35596C13.2516 3.35596 10.9316 4.05974 8.95816 5.37832C6.98477 6.6969 5.4467 8.57104 4.53845 10.7638C3.6302 12.9565 3.39256 15.3693 3.85558 17.697C4.3186 20.0248 5.46149 22.163 7.13972 23.8412C8.81795 25.5195 10.9561 26.6624 13.2839 27.1254C15.6117 27.5884 18.0245 27.3508 20.2172 26.4425C22.4099 25.5343 24.2841 23.9962 25.6026 22.0228C26.9212 20.0494 27.625 17.7293 27.625 15.356C27.6251 13.7801 27.3148 12.2196 26.7118 10.7636C26.1088 9.30763 25.2249 7.98471 24.1106 6.87038C22.9962 5.75605 21.6733 4.87215 20.2174 4.26914C18.7614 3.66613 17.2009 3.35583 15.625 3.35596ZM19.4404 21.5389C19.3955 21.6509 19.3272 21.752 19.24 21.8354C19.1528 21.9189 19.0488 21.9827 18.9349 22.0226C18.8211 22.0626 18.7 22.0777 18.5798 22.067C18.4596 22.0564 18.3431 22.0201 18.238 21.9607L14.9804 19.4295L12.8896 21.3584C12.8411 21.3942 12.7844 21.4173 12.7246 21.4254C12.6648 21.4336 12.604 21.4266 12.5476 21.4051L12.9484 17.8189L12.9613 17.8291L12.9695 17.7583C12.9695 17.7583 18.8315 12.4213 19.0703 12.1939C19.312 11.9671 19.2323 11.9179 19.2323 11.9179C19.246 11.6413 18.7984 11.9179 18.7984 11.9179L11.0314 16.9148L7.79682 15.8132C7.79682 15.8132 7.30002 15.635 7.25322 15.2432C7.20402 14.8544 7.813 14.6432 7.813 14.6432L20.6734 9.53414C20.6734 9.53414 21.7306 9.06312 21.7306 9.84316L19.4404 21.5389Z" fill="white"/>
</svg>
