<svg width="40" height="40" viewBox="0 0 40 40" fill="none" xmlns="http://www.w3.org/2000/svg">
<path d="M28.8475 24.4732L25.9634 26.098C25.6173 26.2929 25.2169 26.3691 24.8234 26.3151C24.4299 26.261 24.0649 26.0797 23.7841 25.7987L14.1579 16.1725C13.8771 15.8916 13.6959 15.5266 13.6419 15.1332C13.5879 14.7397 13.664 14.3394 13.8586 13.9932L15.4834 11.1091C15.7759 10.59 15.8904 9.98942 15.8094 9.39913C15.7285 8.80885 15.4565 8.26129 15.0351 7.8401L10.7124 3.51734C10.459 3.26385 10.1582 3.06277 9.82709 2.92558C9.496 2.78839 9.14111 2.71777 8.78272 2.71777C8.42432 2.71777 8.06944 2.78839 7.73834 2.92558C7.40725 3.06277 7.10642 3.26385 6.85306 3.51734L4.8903 5.47872C3.74254 6.62646 3.01144 8.12497 2.81325 9.73599C2.61506 11.347 2.96116 12.978 3.79651 14.3698L4.78134 16.0111C9.81063 24.3931 16.9093 31.3422 25.3965 36.1918L25.591 36.3035C28.4903 37.9601 32.0724 37.4773 34.3938 35.1573L36.4434 33.1077C36.6969 32.8543 36.898 32.5535 37.0352 32.2224C37.1724 31.8913 37.243 31.5364 37.243 31.178C37.243 30.8196 37.1724 30.4648 37.0352 30.1337C36.898 29.8026 36.6969 29.5017 36.4434 29.2484L32.1179 24.9229C31.6968 24.5009 31.149 24.2285 30.5584 24.1473C29.9679 24.0661 29.3669 24.1806 28.8475 24.4732Z" fill="#2D2D2D"/>
</svg>
